<?xml version="1.0" encoding="UTF-8"?>
<svg id="Layer_2" data-name="Layer 2" xmlns="http://www.w3.org/2000/svg" xmlns:xlink="http://www.w3.org/1999/xlink" viewBox="0 0 2708.85 830.79">
  <defs>
    <style>
      .cls-1, .cls-2, .cls-3, .cls-4, .cls-5, .cls-6, .cls-7, .cls-8, .cls-9 {
        stroke-width: 0px;
      }

      .cls-2 {
        fill: url(#Red_Gradient_1-2);
      }

      .cls-3 {
        fill: url(#Red_Gradient_1-6);
      }

      .cls-4 {
        fill: url(#Red_Gradient_1-8);
      }

      .cls-5 {
        fill: url(#Red_Gradient_1-4);
      }

      .cls-6 {
        fill: url(#Red_Gradient_1-5);
      }

      .cls-7 {
        fill: url(#Red_Gradient_1);
      }

      .cls-8 {
        fill: url(#Red_Gradient_1-7);
      }

      .cls-9 {
        fill: url(#Red_Gradient_1-3);
      }
    </style>
    <linearGradient id="Red_Gradient_1" data-name="Red Gradient 1" x1="146.72" y1="433.77" x2="146.72" y2="847.46" gradientUnits="userSpaceOnUse">
      <stop offset="0" stop-color="#d40000"/>
      <stop offset="1" stop-color="#820000"/>
    </linearGradient>
    <linearGradient id="Red_Gradient_1-2" data-name="Red Gradient 1" x1="456.37" y1="433.77" x2="456.37" y2="847.46" xlink:href="#Red_Gradient_1"/>
    <linearGradient id="Red_Gradient_1-3" data-name="Red Gradient 1" x1="792.19" y1="433.77" x2="792.19" y2="847.46" xlink:href="#Red_Gradient_1"/>
    <linearGradient id="Red_Gradient_1-4" data-name="Red Gradient 1" x1="1238.2" y1="433.77" x2="1238.2" y2="847.46" xlink:href="#Red_Gradient_1"/>
    <linearGradient id="Red_Gradient_1-5" data-name="Red Gradient 1" x1="1407.58" y1="433.77" x2="1407.58" y2="847.46" xlink:href="#Red_Gradient_1"/>
    <linearGradient id="Red_Gradient_1-6" data-name="Red Gradient 1" x1="1815.36" y1="433.77" x2="1815.36" y2="847.46" xlink:href="#Red_Gradient_1"/>
    <linearGradient id="Red_Gradient_1-7" data-name="Red Gradient 1" x1="2207.46" y1="433.77" x2="2207.46" y2="847.46" xlink:href="#Red_Gradient_1"/>
    <linearGradient id="Red_Gradient_1-8" data-name="Red Gradient 1" x1="2567.62" y1="433.77" x2="2567.62" y2="847.46" xlink:href="#Red_Gradient_1"/>
  </defs>
  <g id="Layer_7" data-name="Layer 7">
    <g>
      <g>
        <path class="cls-7" d="M267.13,638.26c13.78-19.19,20.68-41,20.68-65.44,0-21.64-5.06-41.27-15.18-58.89-10.13-17.62-25.39-31.49-45.81-41.62-20.42-10.12-45.11-15.18-74.08-15.18H2.5v367.5h89.52v-138.73h21.46l76.43,138.73h101.04l-84.81-145.53c26.87-8.02,47.2-21.64,60.99-40.83ZM184.42,610.51c-8.2,8.03-20.51,12.04-36.91,12.04h-55.49v-91.09h55.49c16.4,0,28.7,4.02,36.91,12.04,8.2,8.03,12.3,19.03,12.3,32.98,0,14.66-4.11,26-12.3,34.03Z"/>
        <path class="cls-1" d="M295.3,827.12h-106.86l-76.43-138.73h-17.49v138.73H0v-372.5h152.74c29.21,0,54.51,5.2,75.19,15.44,20.76,10.3,36.53,24.64,46.86,42.61,10.29,17.93,15.51,38.17,15.51,60.14,0,24.85-7.12,47.36-21.15,66.9h0c-13.53,18.84-33.46,32.57-59.27,40.83l85.41,146.57ZM191.39,822.12h95.21l-84.22-144.52,3.04-.91c26.2-7.82,46.28-21.25,59.67-39.9,13.41-18.67,20.21-40.2,20.21-63.98,0-21.09-5-40.48-14.85-57.65-9.83-17.1-24.89-30.77-44.75-40.62-19.98-9.9-44.53-14.92-72.96-14.92H5v362.5h84.52v-138.73h25.44l76.43,138.73ZM147.51,625.05h-57.99v-96.09h57.99c17,0,30,4.29,38.65,12.75,8.66,8.49,13.05,20.19,13.05,34.77s-4.39,27.33-13.05,35.81h0c-8.65,8.46-21.65,12.75-38.66,12.75ZM94.52,620.05h52.99c15.65,0,27.48-3.81,35.16-11.33,7.67-7.5,11.55-18.35,11.55-32.24s-3.89-23.68-11.55-31.2c-7.68-7.51-19.51-11.33-35.16-11.33h-52.99v86.09Z"/>
      </g>
      <g>
        <polygon class="cls-2" points="343.82 824.62 568.92 824.62 568.92 752.9 433.34 752.9 433.34 672.28 553.22 672.28 553.22 603.18 433.34 603.18 433.34 528.84 568.92 528.84 568.92 457.12 343.82 457.12 343.82 824.62"/>
        <path class="cls-1" d="M571.42,827.12h-230.11v-372.5h230.11v76.72h-135.59v69.34h119.88v74.1h-119.88v75.62h135.59v76.72ZM346.32,822.12h220.11v-66.72h-135.59v-85.62h119.88v-64.1h-119.88v-79.34h135.59v-66.72h-220.11v362.5Z"/>
      </g>
      <g>
        <path class="cls-9" d="M866.26,480.16c-28.97-15.35-62.82-23.03-101.56-23.03h-137.68v367.5h137.68c38.39,0,72.15-7.67,101.3-23.03,29.14-15.35,51.65-36.99,67.53-64.91,15.88-27.92,23.82-59.85,23.82-95.8s-7.94-68.32-23.82-96.06c-15.88-27.75-38.31-49.29-67.27-64.65ZM838,719.4c-18.85,18.5-45.2,27.75-79.05,27.75h-42.4v-213.59h42.4c33.85,0,60.2,9.42,79.05,28.27,18.85,18.85,28.27,45.2,28.27,79.05s-9.42,60.03-28.27,78.53Z"/>
        <path class="cls-1" d="M764.71,827.12h-140.18v-372.5h140.18c38.96,0,73.52,7.85,102.73,23.33h0c29.25,15.52,52.22,37.59,68.27,65.62,16.02,28,24.15,60.74,24.15,97.3s-8.12,68.87-24.15,97.04c-16.05,28.21-39.11,50.38-68.54,65.89-29.36,15.48-63.83,23.32-102.46,23.32ZM629.52,822.12h135.18c37.81,0,71.5-7.65,100.13-22.75,28.57-15.06,50.96-36.57,66.52-63.94,15.59-27.41,23.49-59.22,23.49-94.56s-7.9-67.58-23.49-94.82c-15.57-27.19-37.87-48.62-66.27-63.69-28.48-15.09-62.25-22.74-100.39-22.74h-135.18v362.5ZM758.95,749.64h-44.9v-218.59h44.9c34.38,0,61.57,9.76,80.82,29,19.24,19.24,29,46.43,29,80.82s-9.77,61.41-29.02,80.31h0c-19.24,18.88-46.42,28.46-80.8,28.46ZM719.04,744.64h39.9c33.02,0,59.03-9.09,77.3-27.03h0c18.26-17.92,27.52-43.74,27.52-76.74s-9.26-59.01-27.54-77.28c-18.27-18.27-44.27-27.54-77.28-27.54h-39.9v208.59Z"/>
      </g>
      <g>
        <polygon class="cls-5" points="1118.58 824.62 1208.1 824.62 1208.1 675.95 1320.13 675.95 1320.13 606.32 1208.1 606.32 1208.1 528.84 1357.82 528.84 1357.82 457.12 1118.58 457.12 1118.58 824.62"/>
        <path class="cls-1" d="M1210.6,827.12h-94.52v-372.5h244.24v76.72h-149.72v72.48h112.03v74.63h-112.03v148.67ZM1121.08,822.12h84.52v-148.67h112.03v-64.63h-112.03v-82.48h149.72v-66.72h-234.24v362.5Z"/>
      </g>
      <g>
        <path class="cls-6" d="M1494.45,457.12h-.34l64.21-401.55-15.8-2.53c-11.53-8.26-29.5-18.89-53.08-23.71-75.83-15.51-121.22,47.17-190,39-24.95-2.96-58.76-15.94-96-61,3.85,88.22,30.29,121.77,54,136,44.62,26.8,91.9-7.42,161,16,45.9,15.56,76.63,48.14,95.38,73.17l-35.92,224.61h-72.97v367.5h206.78v-69.1h-117.26v-298.4Z"/>
        <path class="cls-1" d="M1614.22,827.12h-211.78v-372.5h73.34l35.42-221.46c-26.76-35.45-58.23-59.49-93.55-71.46-33.7-11.42-62.47-8.9-87.86-6.68-27.04,2.37-50.39,4.41-73.62-9.54-33.51-20.12-52.09-66.56-55.21-138.03l-.33-7.45,4.75,5.75c29.73,35.98,61.48,56.2,94.37,60.11,31.65,3.76,57.93-7.66,85.75-19.76,31.21-13.56,63.49-27.59,104.45-19.21,18.72,3.83,36.73,11.83,53.55,23.78l17.69,2.83-64.24,401.68v297.83h117.26v74.1ZM1407.44,822.12h201.78v-64.1h-117.26v-298.4h-.77l64.28-401.97-13.91-2.22-.48-.34c-16.38-11.73-33.92-19.57-52.12-23.29-39.43-8.06-70.96,5.64-101.46,18.9-27.21,11.83-55.35,24.06-88.33,20.14-32.42-3.85-63.62-22.76-92.83-56.23,3.95,65.51,21.56,108.08,52.41,126.6,21.84,13.12,44.44,11.14,70.61,8.85,25.88-2.27,55.21-4.83,89.9,6.93,36.57,12.4,69.06,37.31,96.58,74.04l.63.85-36.42,227.76h-72.61v362.5Z"/>
      </g>
      <g>
        <path class="cls-3" d="M1763.53,457.12l-132.97,367.5h93.71l21.99-64.91h137.16l21.99,64.91h94.75l-132.97-367.5h-103.65ZM1769.81,690.61l45.02-134.54,45.54,134.54h-90.57Z"/>
        <path class="cls-1" d="M2003.71,827.12h-100.11l-21.99-64.91h-133.57l-21.99,64.91h-99.06l1.21-3.35,133.57-369.15h107.16l134.78,372.5ZM1907.19,822.12h89.4l-131.16-362.5h-100.14l-131.16,362.5h88.35l21.99-64.91h140.74l21.99,64.91ZM1863.86,693.11h-97.52l48.48-144.88,49.04,144.88ZM1773.28,688.11h83.61l-42.05-124.2-41.56,124.2Z"/>
      </g>
      <g>
        <path class="cls-8" d="M2194.89,683.28h113.6c-6.99,20.94-18.06,37-33.24,48.16-15.18,11.17-33.77,16.75-55.75,16.75-32.11,0-57.32-9.5-75.65-28.53-18.32-19.02-27.48-45.45-27.48-79.31,0-31.75,8.72-57.14,26.18-76.17,17.45-19.02,40.65-28.53,69.62-28.53,16.75,0,31.32,3.23,43.71,9.69,12.38,6.46,21.9,15.79,28.53,28.01h98.94c-9.78-37.69-29.76-67.18-59.94-88.47-30.19-21.28-67.27-31.93-111.24-31.93-36.3,0-68.58,7.94-96.85,23.82-28.27,15.88-50.35,38.04-66.22,66.48-15.88,28.45-23.82,60.82-23.82,97.11s7.93,68.58,23.82,96.85c15.88,28.27,38.04,50.35,66.48,66.22,28.44,15.88,60.81,23.82,97.11,23.82,30.71,0,58.28-5.93,82.71-17.8,24.42-11.86,44.58-27.39,60.46-46.59,15.88-19.19,27.13-39.96,33.77-62.3v-83.24h-194.74v65.96Z"/>
        <path class="cls-1" d="M2212.69,829.74c-36.57,0-69.65-8.12-98.33-24.14-28.72-16.03-51.41-38.63-67.45-67.18-16.02-28.51-24.14-61.5-24.14-98.07s8.12-69.64,24.14-98.33c16.03-28.71,38.63-51.4,67.18-67.45,28.52-16.02,61.52-24.14,98.07-24.14,44.28,0,82.2,10.9,112.68,32.39,30.54,21.54,51.04,51.79,60.92,89.89l.81,3.13h-103.66l-.71-1.31c-6.36-11.71-15.61-20.78-27.49-26.98-11.98-6.24-26.3-9.4-42.56-9.4-28.1,0-50.91,9.33-67.78,27.72-16.93,18.45-25.52,43.51-25.52,74.48,0,33.03,9.01,59.13,26.79,77.58,17.74,18.42,42.59,27.76,73.84,27.76,21.35,0,39.61-5.47,54.27-16.27,13.88-10.21,24.36-24.88,31.2-43.65h-112.58v-70.96h199.74v86.1l-.1.35c-6.7,22.56-18.22,43.82-34.24,63.18-16.04,19.39-36.67,35.29-61.3,47.25-24.66,11.98-52.85,18.05-83.81,18.05ZM2212.17,455.44c-35.69,0-67.86,7.91-95.62,23.5-27.73,15.58-49.69,37.63-65.26,65.52-15.59,27.93-23.5,60.19-23.5,95.89s7.91,67.87,23.5,95.62c15.58,27.74,37.62,49.69,65.52,65.27,27.92,15.59,60.18,23.5,95.89,23.5,30.19,0,57.65-5.9,81.62-17.55,23.98-11.65,44.05-27.1,59.63-45.94,15.5-18.74,26.67-39.28,33.19-61.07v-80.37h-189.74v60.96h114.57l-1.1,3.29c-7.12,21.35-18.61,37.97-34.13,49.38-15.54,11.44-34.8,17.24-57.23,17.24-32.67,0-58.73-9.86-77.45-29.3-18.7-19.41-28.18-46.68-28.18-81.04,0-32.26,9.03-58.45,26.83-77.86,17.86-19.47,41.91-29.34,71.47-29.34,17.07,0,32.17,3.35,44.87,9.97,12.33,6.44,22.03,15.76,28.84,27.72h94.21c-9.87-35.45-29.41-63.68-58.12-83.93-29.63-20.89-66.57-31.48-109.8-31.48Z"/>
      </g>
      <g>
        <path class="cls-4" d="M2690.12,661.29c-10.82-13.95-23.65-24.6-38.48-31.93-14.84-7.33-34.12-15-57.85-23.03-23.74-7.67-41.18-14.83-52.35-21.46-11.17-6.63-16.75-15.88-16.75-27.75,0-10.81,3.31-19.11,9.95-24.87,6.62-5.76,15.35-8.64,26.17-8.64,12.56,0,22.85,3.4,30.89,10.21,8.02,6.81,12.38,16.15,13.09,28.01h96.85c-1.75-34.55-15.01-61.51-39.79-80.88-24.79-19.37-57.41-29.05-97.9-29.05s-72.07,9.68-96.85,29.05c-24.78,19.37-37.17,46.16-37.17,80.36,0,23.03,5.41,41.71,16.23,56.01,10.81,14.31,23.73,25.13,38.74,32.46,15,7.33,34.37,14.66,58.11,21.99,16.4,4.89,29.05,9.25,37.95,13.09,8.9,3.84,16.4,8.73,22.51,14.66,6.1,5.94,9.16,13.44,9.16,22.51,0,10.82-3.84,19.29-11.52,25.39-7.68,6.11-18.15,9.16-31.41,9.16s-23.39-3.58-31.41-10.73c-8.03-7.15-12.74-17.54-14.13-31.15h-95.28c.7,24.08,7.41,44.68,20.15,61.77,12.74,17.1,29.75,30.02,51.04,38.74,21.28,8.73,45.36,13.09,72.24,13.09s51.47-5.05,71.72-15.18c20.24-10.12,35.68-23.73,46.33-40.83,10.64-17.1,15.97-36.12,15.97-57.06,0-21.99-5.42-39.96-16.23-53.92Z"/>
        <path class="cls-1" d="M2572.33,830.79c-27.09,0-51.71-4.47-73.19-13.27-21.61-8.85-39.14-22.16-52.1-39.56-12.99-17.43-19.94-38.69-20.65-63.19l-.07-2.57h100.11l.23,2.25c1.32,12.91,5.8,22.85,13.31,29.54,7.51,6.7,17.52,10.1,29.75,10.1s22.67-2.9,29.85-8.62c7.12-5.66,10.57-13.32,10.57-23.43,0-8.44-2.75-15.21-8.41-20.72-5.86-5.68-13.18-10.45-21.76-14.16-8.74-3.77-21.42-8.14-37.68-12.99-23.77-7.34-43.45-14.79-58.49-22.14-15.31-7.47-28.64-18.64-39.64-33.2-11.1-14.68-16.73-34.03-16.73-57.52,0-34.86,12.83-62.55,38.13-82.33,25.11-19.63,58.21-29.58,98.39-29.58s74.32,9.95,99.43,29.58c25.25,19.74,38.96,47.58,40.74,82.72l.13,2.63h-101.83l-.14-2.35c-.67-11.26-4.66-19.85-12.21-26.25-7.53-6.38-17.38-9.62-29.27-9.62-10.15,0-18.41,2.7-24.54,8.03-6.11,5.31-9.09,12.82-9.09,22.98,0,11.03,5.08,19.4,15.53,25.59,10.97,6.52,28.41,13.66,51.84,21.24,23.78,8.05,43.34,15.84,58.19,23.17,15.1,7.46,28.33,18.44,39.35,32.64h0c11.12,14.35,16.75,33.01,16.75,55.45s-5.5,40.96-16.34,58.38c-10.85,17.42-26.77,31.47-47.33,41.75-20.49,10.25-44.99,15.45-72.84,15.45ZM2431.49,717.19c1.07,22.37,7.65,41.8,19.56,57.78,12.41,16.66,29.22,29.42,49.99,37.92,20.88,8.56,44.86,12.9,71.3,12.9s50.81-5.02,70.6-14.92c19.72-9.86,34.97-23.29,45.33-39.92,10.34-16.62,15.59-35.37,15.59-55.74s-5.28-38.93-15.71-52.39c-10.54-13.6-23.2-24.1-37.61-31.22-14.64-7.23-34-14.94-57.54-22.91-23.76-7.68-41.54-14.98-52.83-21.68-11.93-7.07-17.97-17.13-17.97-29.89,0-11.53,3.64-20.53,10.81-26.75,7.06-6.14,16.42-9.25,27.81-9.25,13.11,0,24.04,3.63,32.5,10.8,7.98,6.77,12.61,15.99,13.78,27.42h91.89c-2.24-32.4-15.24-58.09-38.67-76.41-24.22-18.93-56.64-28.52-96.36-28.52s-71.1,9.6-95.31,28.52c-24.03,18.78-36.21,45.15-36.21,78.39,0,22.38,5.29,40.71,15.72,54.51,10.52,13.92,23.25,24.59,37.84,31.72,14.81,7.24,34.24,14.59,57.75,21.84,16.42,4.9,29.28,9.33,38.21,13.18,9.14,3.95,16.97,9.05,23.26,15.16,6.58,6.41,9.92,14.58,9.92,24.31,0,11.57-4.19,20.77-12.46,27.35-8.09,6.44-19.18,9.71-32.97,9.71s-24.62-3.82-33.07-11.37c-8.02-7.14-12.96-17.4-14.69-30.51h-90.46Z"/>
      </g>
    </g>
  </g>
</svg>
